/* XPM */
static const char *const  wx_small_xpm[] = {
"16 16 127 2",
"  	c None",
". 	c #000000",
"+ 	c #115C80",
"@ 	c #0E7EB6",
"# 	c #097CB6",
"$ 	c #077BB6",
"% 	c #087BB6",
"& 	c #087BB5",
"* 	c #FFFFFF",
"= 	c #097CB5",
"- 	c #FFC344",
"; 	c #FFC549",
"> 	c #FFC648",
", 	c #A2B9BD",
"' 	c #FFC647",
") 	c #FFC646",
"! 	c #7EB5E3",
"~ 	c #82B4DD",
"{ 	c #83B6E0",
"] 	c #87B8E1",
"^ 	c #8AB9E0",
"/ 	c #88B8E0",
"( 	c #8BB9DE",
"_ 	c #84B6E0",
": 	c #087BB4",
"< 	c #EBFDFF",
"[ 	c #EDFEFF",
"} 	c #F0FFFF",
"| 	c #96BBDA",
"1 	c #F1FFFF",
"2 	c #96B8D4",
"3 	c #98B9D5",
"4 	c #9BBCD7",
"5 	c #9EBED8",
"6 	c #9CBCD7",
"7 	c #077AB5",
"8 	c #A1BED7",
"9 	c #A3BED7",
"0 	c #067BB6",
"a 	c #037AB8",
"b 	c #017CBA",
"c 	c #007BC0",
"d 	c #0071B4",
"e 	c #0076B9",
"f 	c #0077BC",
"g 	c #0176B1",
"h 	c #0076B1",
"i 	c #0075BB",
"j 	c #0076BA",
"k 	c #8FBAD0",
"l 	c #767171",
"m 	c #007DC0",
"n 	c #337689",
"o 	c #D6AD7C",
"p 	c #D0964B",
"q 	c #E1A75A",
"r 	c #EBB870",
"s 	c #EBB770",
"t 	c #DAA45D",
"u 	c #DEB177",
"v 	c #68686B",
"w 	c #7F541B",
"x 	c #C37A1B",
"y 	c #717656",
"z 	c #30758B",
"A 	c #0077C5",
"B 	c #727656",
"C 	c #DDA658",
"D 	c #F0CD93",
"E 	c #FFF3CA",
"F 	c #FFE7AB",
"G 	c #FDDE98",
"H 	c #FDE09D",
"I 	c #FFE4A7",
"J 	c #F1F3FB",
"K 	c #5F6064",
"L 	c #DCB371",
"M 	c #FFF5C5",
"N 	c #F5D49B",
"O 	c #E6B56E",
"P 	c #D08A27",
"Q 	c #DEAD5F",
"R 	c #FFE4A3",
"S 	c #ECC36F",
"T 	c #D9A33C",
"U 	c #CF952E",
"V 	c #F4C962",
"W 	c #F4C961",
"X 	c #F5C960",
"Y 	c #F9C957",
"Z 	c #E5EAF4",
"` 	c #585A5F",
" .	c #68491B",
"..	c #D29B3B",
"+.	c #EABC5C",
"@.	c #FCD880",
"#.	c #F8D88C",
"$.	c #D39A35",
"%.	c #D29831",
"&.	c #D9A137",
"*.	c #E9B84A",
"=.	c #F5C756",
"-.	c #F1C253",
";.	c #DEAB48",
">.	c #CC9439",
",.	c #BB7920",
"'.	c #DFE5F0",
").	c #55575A",
"!.	c #4F3613",
"~.	c #BA822E",
"{.	c #DBA43A",
"].	c #EEBA40",
"^.	c #F2BE42",
"/.	c #F0BD42",
"(.	c #DEA83E",
"_.	c #CB9437",
":.	c #BA7F30",
"<.	c #895D23",
"[.	c #402C10",
"}.	c #201506",
"|.	c #70757D",
"1.	c #505255",
"2.	c #422D11",
"3.	c #B67C30",
"4.	c #BB8031",
"5.	c #7B5521",
"6.	c #33230E",
". . . . . . . . . . . . . . . . ",
". + @ # $ % % % % & % $ # @ + . ",
". @ * * * * * * * * * * * * @ . ",
". = * - ; > , ' ) ! ' ; - * = . ",
". & * ~ { ] ^ / / ( / _ ~ * & . ",
". : * < [ } | 1 1 | 1 [ < * : . ",
". : * 2 3 4 5 6 6 5 4 3 2 * & . ",
". 7 * * * * 8 * * 9 * * * * 0 . ",
". a * * * * * * * * * * * * b . ",
". c * * * * d e f g h i j e k l ",
". m * * * * n o p q r s t u * v ",
"w x y z A B C D E F G H I F J K ",
"L M N O P Q R S T U V W X Y Z ` ",
" ...+.@.#.$.%.&.*.=.-.;.>.,.'.).",
". . !.~.{.].^./.(._.:.<.[.}.|.1.",
". . . . 2.3.4.4.5.6.. . . . . . "};
